<svg width="30" height="30" viewBox="0 0 30 30" fill="none" xmlns="http://www.w3.org/2000/svg">
<rect width="30" height="30" rx="8" fill="#111111"/>
<path d="M20.004 7.00004C20.5563 7.00002 21 7.4468 21 7.9991C21 9.9005 21 12.5717 21 14.0024C21 14.5546 20.5523 15 20 15H17V12C17 11.4477 16.5523 11 16 11H14C13.4477 11 13 11.4477 13 12V14C13 14.5523 13.4477 15 14 15H17V19H14C13.4477 19 13 19.4477 13 20V22C13 22.5523 12.5523 23 12 23H10C9.44772 23 9 22.5523 9 22V8.00001C9 7.44772 9.44403 7.00001 9.99632 7.00001C12.1898 7.00004 17.4445 7.00009 20.004 7.00004ZM20 19C20.5523 19 21 19.4477 21 20V22C21 22.5523 20.5523 23 20 23H18C17.4477 23 17 22.5523 17 22V19H20Z" fill="white"/>
</svg>
